<?xml version="1.0" encoding="UTF-8" standalone="no"?>
<!-- Created with Inkscape (http://www.inkscape.org/) -->

<svg
   xmlns:dc="http://purl.org/dc/elements/1.1/"
   xmlns:cc="http://creativecommons.org/ns#"
   xmlns:rdf="http://www.w3.org/1999/02/22-rdf-syntax-ns#"
   xmlns:svg="http://www.w3.org/2000/svg"
   xmlns="http://www.w3.org/2000/svg"
   xmlns:sodipodi="http://sodipodi.sourceforge.net/DTD/sodipodi-0.dtd"
   xmlns:inkscape="http://www.inkscape.org/namespaces/inkscape"
   width="210mm"
   height="297mm"
   viewBox="0 0 744.09448819 1052.3622047"
   id="svg2"
   version="1.1"
   inkscape:version="0.91 r13725"
   sodipodi:docname="base0.svg">
  <defs
     id="defs4" />
  <sodipodi:namedview
     id="base"
     pagecolor="#ffffff"
     bordercolor="#666666"
     borderopacity="1.0"
     inkscape:pageopacity="0.0"
     inkscape:pageshadow="2"
     inkscape:zoom="1.4142136"
     inkscape:cx="375"
     inkscape:cy="557.27092"
     inkscape:document-units="px"
     inkscape:current-layer="layer1"
     showgrid="true"
     inkscape:window-width="1301"
     inkscape:window-height="744"
     inkscape:window-x="65"
     inkscape:window-y="24"
     inkscape:window-maximized="1">
    <inkscape:grid
       type="xygrid"
       id="grid3336" />
  </sodipodi:namedview>
  <metadata
     id="metadata7">
    <rdf:RDF>
      <cc:Work
         rdf:about="">
        <dc:format>image/svg+xml</dc:format>
        <dc:type
           rdf:resource="http://purl.org/dc/dcmitype/StillImage" />
        <dc:title></dc:title>
      </cc:Work>
    </rdf:RDF>
  </metadata>
  <g
     inkscape:label="Layer 1"
     inkscape:groupmode="layer"
     id="layer1">
    <path
       style="fill:none;fill-rule:evenodd;stroke:#000000;stroke-width:1px;stroke-linecap:butt;stroke-linejoin:miter;stroke-opacity:1"
       d="m 170,372.3622 c 0,0 -50,0 -50,10 0,10 0,160 0,160 0,0 0,20 20,20 20,0 30,0 30,0"
       id="path3348"
       inkscape:connector-curvature="0" />
    <path
       style="fill:none;fill-rule:evenodd;stroke:#000000;stroke-width:1px;stroke-linecap:butt;stroke-linejoin:miter;stroke-opacity:1"
       d="m 211.20563,372.44904 c 0,0 50,0 50,10 0,10 0,160 0,160 0,0 0,20 -20,20 -20,0 -30,0 -30,0"
       id="path3348-6"
       inkscape:connector-curvature="0" />
    <path
       style="fill:none;fill-rule:evenodd;stroke:#000000;stroke-width:1.06006777px;stroke-linecap:butt;stroke-linejoin:miter;stroke-opacity:1"
       d="m 170,372.3622 44.94975,0"
       id="path3371"
       inkscape:connector-curvature="0" />
    <path
       style="fill:none;fill-rule:evenodd;stroke:#000000;stroke-width:1.0683732px;stroke-linecap:butt;stroke-linejoin:miter;stroke-opacity:1"
       d="m 170,562.3622 45.65685,0"
       id="path3373"
       inkscape:connector-curvature="0" />
    <path
       style="fill:#00ff00"
       d="m 135.92929,561.13854 c -4.36731,-0.75562 -6.97079,-2.19633 -9.972,-5.51831 -5.10465,-5.65025 -4.83505,-0.27332 -4.6348,-92.43403 l 0.17973,-82.71693 3.22353,-1.60083 c 3.92168,-1.94755 10.39059,-3.33896 21.17165,-4.55387 11.34508,-1.27847 76.21007,-1.26067 88.38835,0.0243 13.9728,1.47426 21.77309,3.43752 24.89963,6.267 1.19909,1.08516 1.26332,5.28358 1.26332,82.57619 0,89.85693 0.20637,85.59891 -4.44407,91.69604 -1.26062,1.65278 -3.861,3.80826 -5.79578,4.80418 l -3.50927,1.80637 -53.75985,0.10617 c -29.56791,0.0584 -55.22261,-0.14692 -57.01044,-0.45624 z"
       id="path4175"
       inkscape:connector-curvature="0" />
    <path
       style="fill:none;fill-rule:evenodd;stroke:#000000;stroke-width:1px;stroke-linecap:butt;stroke-linejoin:miter;stroke-opacity:1"
       d="m 130.08979,392.3622 c 0,0 0,-10 10,-10 10,0 10,10 10,10 0,0 0,10 -10,10 -10,0 -10,-10 -10,-10"
       id="path4179"
       inkscape:connector-curvature="0" />
    <path
       style="fill:#008080"
       d="m 135.20699,400.26608 c -2.24374,-1.21934 -4.15978,-5.0164 -4.15619,-8.23641 0.006,-5.32596 5.2632,-9.71423 10.46809,-8.73778 3.70649,0.69534 5.59114,2.25912 6.92176,5.74329 2.38868,6.25468 -1.6063,12.32088 -8.07758,12.26543 -1.81748,-0.0156 -4.13771,-0.48111 -5.15608,-1.03453 z"
       id="path4181"
       inkscape:connector-curvature="0" />
    <path
       style="fill:none;fill-rule:evenodd;stroke:#000000;stroke-width:1px;stroke-linecap:butt;stroke-linejoin:miter;stroke-opacity:1"
       d="m 232.08979,392.3622 c 0,0 0,-10 10,-10 10,0 10,10 10,10 0,0 0,10 -10,10 -10,0 -10,-10 -10,-10"
       id="path4179-5"
       inkscape:connector-curvature="0" />
    <path
       style="fill:#008080"
       d="m 237.20699,400.26608 c -2.24374,-1.21934 -4.15978,-5.0164 -4.15619,-8.23641 0.006,-5.32596 5.2632,-9.71423 10.46809,-8.73778 3.70649,0.69534 5.59114,2.25912 6.92176,5.74329 2.38868,6.25468 -1.6063,12.32088 -8.07758,12.26543 -1.81748,-0.0156 -4.13771,-0.48111 -5.15608,-1.03453 z"
       id="path4181-3"
       inkscape:connector-curvature="0" />
  </g>
</svg>
